# xmcd
#
# Track frame offsets:
#	150
#	13326
#	31409
#	47061
#	65385
#	82423
#	99061
#	114724
#	131330
#	147031
#	164620
#	180824
#	195370
#	214123
#	235746
#	254050
#	273767
#	288343
#	305472
#	322898
#
# Disc length: 4562 seconds
#
# Revision: 0
# Processed by: cddbd v1.5.2PL0 Copyright (c) Steve Scherf et al.
# Submitted via: EasyCDDAExtractor 11.9.9.666
#
DISCID=1511d014
DTITLE=Amr Diab - The Very Best Of
DYEAR=1900
DGENRE=
TTITLE0=El Lilady
TTITLE1=Ne, Oul Aih
TTITLE2=Toul Ma, An Shaifak
TTITLE3=Hikayat
TTITLE4=Inta El Ghaly
TTITLE5=Rohy Mertahalak
TTITLE6=Aletly Oul
TTITLE7=We Fehmt Einak
TTITLE8=Dehket
TTITLE9=Khalik Ma, Aya
TTITLE10=Saher Kosfha
TTITLE11=Sebtek
TTITLE12=Wadek Lea
TTITLE13=Wemalo
TTITLE14=Leale Nhare
TTITLE15=Tensa
TTITLE16=Elhabaeb
TTITLE17=Aeshe
TTITLE18=Bane Webanek
TTITLE19=Nour Elaean
EXTD=
EXTT0=
EXTT1=
EXTT2=
EXTT3=
EXTT4=
EXTT5=
EXTT6=
EXTT7=
EXTT8=
EXTT9=
EXTT10=
EXTT11=
EXTT12=
EXTT13=
EXTT14=
EXTT15=
EXTT16=
EXTT17=
EXTT18=
EXTT19=
PLAYORDER=
